<?xml version="1.0" encoding="UTF-8"?>
<!-- Generator: Adobe Illustrator 25.0.0, SVG Export Plug-In . SVG Version: 6.00 Build 0)  -->
<svg version="1.1" id="Calque_1" xmlns="http://www.w3.org/2000/svg" xmlns:xlink="http://www.w3.org/1999/xlink" x="0px" y="0px" viewBox="0 0 149.6 121.7" style="enable-background:new 0 0 149.6 121.7;" xml:space="preserve">
<style type="text/css">
	.st0{display:none;}
	.st1{enable-background:new    ;}
</style>
<g id="Marks__x28_no_editing_x29_" class="st0">
</g>
<g id="_x34_2_logotype__x28_no_editing_x29_">
	<g>
		<polygon points="76,0 50.7,0 0,50.7 0,71.2 50.7,71.2 50.7,96.5 76,96.5 76,50.7 25.3,50.7   "/>
		<polygon points="86.9,25.3 112.2,0 86.9,0   "/>
		<polygon points="137.5,25.3 137.5,0 112.2,0 112.2,25.3 86.9,50.7 86.9,76 112.2,76 112.2,50.7   "/>
		<polygon points="137.5,50.7 112.2,76 137.5,76   "/>
	</g>
	<rect x="86.9" y="96.5" width="2" height="25.2"/>
</g>
<g id="Campus_name">
	<g class="st1">
		<path d="M104.1,101.5c0.9,0,2.4,0,3.5,1.1c0.6,0.6,1.1,1.5,1.1,2.9c0,1.5-0.5,2.8-1.3,3.5c-0.6,0.6-1.7,1.2-4,1.2h-1.8l-0.6,4.7    h-3.1l1.6-13.3H104.1z M101.9,107.6h1.1c0.7,0,1.4-0.1,1.9-0.6c0.5-0.4,0.5-1,0.5-1.4c0-0.4-0.1-0.8-0.4-1.2    c-0.5-0.5-1.3-0.5-1.7-0.5h-0.9L101.9,107.6z"/>
		<path d="M116.4,112.3h-5l-1.3,2.5h-3.3l7-13.3h2.8l3.6,13.3h-3.2L116.4,112.3z M115.9,109.9l-1.1-4.7l-2.2,4.7H115.9z"/>
		<path d="M127.5,101.5c1.3,0,2.5,0.1,3.5,1.2c0.5,0.5,1,1.3,1,2.7c0,1.3-0.4,2.3-1.1,2.9c-0.6,0.6-1.4,0.9-2.1,1.1l3.4,5.4h-3.6    l-3.2-5.3l-0.6,5.3h-3.1l1.6-13.3H127.5z M125.7,107.5h0.8c0.5,0,1.3-0.1,1.8-0.5c0.5-0.4,0.7-1,0.7-1.6c0-0.4-0.1-1-0.6-1.3    c-0.4-0.3-1-0.3-1.7-0.3h-0.5L125.7,107.5z"/>
		<path d="M138.6,101.5l-1.6,13.3h-3.1l1.6-13.3H138.6z"/>
		<path d="M148.1,104.7c-0.8-0.8-1.6-1-2.2-1c-0.4,0-0.9,0.1-1.3,0.3c-0.3,0.2-0.5,0.6-0.5,1c0,0.4,0.2,0.7,0.5,0.9    c0.3,0.2,0.6,0.4,1.3,0.7l0.8,0.4c0.6,0.3,1.2,0.6,1.8,1.3c0.5,0.6,0.7,1.2,0.7,2.1c0,1.4-0.6,2.6-1.3,3.4    c-1.1,1.1-2.5,1.3-3.8,1.3c-1,0-1.8-0.1-2.7-0.6c-0.7-0.4-1.3-0.9-1.8-1.4l1.7-2.2c0.3,0.4,0.7,0.8,1.1,1.1c0.4,0.3,1,0.4,1.6,0.4    c0.5,0,1.1-0.1,1.5-0.4c0.4-0.3,0.6-0.7,0.6-1.2c0-0.5-0.2-0.8-0.4-0.9c-0.1-0.1-0.4-0.3-1.1-0.6l-0.8-0.3    c-0.2-0.1-1.2-0.5-1.9-1.2c-0.6-0.7-0.9-1.4-0.9-2.3c0-1.4,0.6-2.4,1.2-3c1.1-1.1,2.5-1.3,3.6-1.3c1.1,0,2.5,0.2,3.9,1.3    L148.1,104.7z"/>
	</g>
</g>
</svg>